<svg xmlns="http://www.w3.org/2000/svg" viewBox="0 0 2070.17 2018.99"><title>Element 1</title><path d="M612,1309.82c1.3,3.71,4,7,3.52,11.25-9.46-3-18.74-6.5-29-6.22A421.79,421.79,0,0,0,528,1320.2a93.08,93.08,0,0,0-28.36,9.19c-14.28,7.55-19.2,18.47-15.08,32.93,4.32,15.12,14.47,22,30.77,20.42a117.45,117.45,0,0,0,17.64-3.23,150.07,150.07,0,0,1,55.35-3.86c11.2,1.28,22.49,2.66,33.67-.5,1.81-.52,3.15.68,4.57,1.5.42,3.67-1.4,5.69-4.86,6.24a101.54,101.54,0,0,1-11.86,1.44c-6.3.23-12.63.24-18.93,0a228.76,228.76,0,0,0-55.5,4.41c-6.18,1.24-12.46,2-18.71,2.87-13.35,1.8-25.84-.07-36.63-8.9-1.66-2.46-3.51-4.8-4.94-7.39-9.43-17.06-9.93-35.17,10-48.78a88.5,88.5,0,0,1,12.13-6.82c16.79-8,34.85-10.51,53.1-12.47,17.83-1.92,35.65-1.4,53.5-.87a7.79,7.79,0,0,1,1.63.76Z" fill="#41505e"/><path d="M626.6,1376.65c-1.42-.82-2.76-2-4.57-1.5-11.18,3.16-22.47,1.78-33.67.5a150.07,150.07,0,0,0-55.35,3.86,117.45,117.45,0,0,1-17.64,3.23c-16.3,1.61-26.45-5.3-30.77-20.42-4.12-14.46.8-25.38,15.08-32.93A93.08,93.08,0,0,1,528,1320.2a421.79,421.79,0,0,1,58.53-5.35c10.25-.28,19.53,3.22,29,6.22,15.1,9.73,18.14,25.32,19.46,41.38C635.5,1368.42,630.08,1372.29,626.6,1376.65Z" fill="#dfd4b8"/><path d="M1558.18,1864.65c5.79,13.52,11.29,26,16.48,38.59a148.52,148.52,0,0,1,10,37.54,72.51,72.51,0,0,1-.66,24.84c-2.83,13.26-10.17,22.15-23.51,25.69-14.32,3.81-27.11,1.55-37.54-9.62-5.56-6-8.93-13.23-11.56-20.82-3.38-9.75-6.54-19.58-9.79-29.37-4.52-13.64-11-26.34-18.78-39.26-166.65,51.28-335.36,65.83-507,29.81-8.28,12.56-13.7,25.73-18.23,39.3-2.74,8.21-5.28,16.49-8.09,24.67a69.16,69.16,0,0,1-8.25,17C931.63,2017,917,2022,899.94,2017.25c-14.65-4.07-23.08-15-24.36-31.69-1.27-16.56,1.88-32.48,7.21-48.07,4.31-12.6,9.88-24.69,15.27-37.18-2.76-3.54-7-3.9-10.51-5.25-35.3-13.48-68.83-30.35-100.13-51.56-60.86-41.23-103.84-96.85-132-164.35-17-40.83-27.08-83.52-33.78-127.09-7.1-46.17-10-92.72-12.16-139.33-2.6-55.92-3.92-111.92-8.26-167.75-4-51.15-9.1-102.2-15-153.18q-3.07-26.8-5.76-53.66c-.46-4.67-2.39-7.67-6.29-10.46-59.4-42.46-96.51-100-110.41-171.23-20.12-103.05,4.7-195,74.41-273.85,34.27-38.79,77-65.27,126.07-81.55A39.59,39.59,0,0,0,681,490.92c26.92-27.64,57.77-50.21,91.09-69.51,3.4-2,7.3-3.25,10.26-7a137.06,137.06,0,0,0-22.52-32.33c-8.15-8.81-16.36-17.53-22.93-27.65-18.74-28.86-20.55-81.42,15.46-108.54,16-12,34.18-17.88,53.92-18.63,37.72-1.42,70.45,12,99.56,35.06C932,283,949.67,309.43,958,341.91c.73,2.87,1.67,5.68,2.51,8.47,5.09.92,9.53-1,14-2,45.31-9.74,91.1-16.25,137.08-21.79,51.28-6.18,102.7-11,154.18-15,72.36-5.62,143.8-.62,213.17,22.71,1.86.62,3.8,1,5.35,1.38,3.16-1.57,3.39-4.52,4.51-6.85,29.13-60.67,79.08-88.93,144.64-91.09,25.07-.82,48.87,6.3,69.08,22.21,25.92,20.39,34.66,47,27.57,79-5.82,26.28-21.34,45.4-43.8,59.41-7.92,4.94-15.73,10-22.8,16.18-2.71,2.35-5.82,4.34-7.56,7.83a14,14,0,0,0,2,2.21c41.14,28.81,70.72,67.46,93.29,111.61a153.82,153.82,0,0,0,32.91,44.1c45.45,42.25,73,94.58,80.78,156.52,6.06,48.38-1.76,94.91-20.78,139.68a285,285,0,0,1-21.59,41.63,22.89,22.89,0,0,0-3.6,11.18c-4.44,66.89-14.72,133.06-24.85,199.24-9.18,60-9.58,120.07-3.45,180.38,4.85,47.72,11.48,95.27,13.79,143.24a672.25,672.25,0,0,1-.11,72.94c-1.07,17.61-1.59,35.19-4.26,52.73a274.4,274.4,0,0,1-32,93c-35.6,63.82-82.39,117.72-142.7,159.48-16.78,11.63-35,20.62-53.75,28.47C1567.35,1860.62,1563.13,1862.5,1558.18,1864.65ZM629.53,1429.86a178.87,178.87,0,0,0,.93,32.72A650.78,650.78,0,0,0,643.87,1572c4.53,21.37,9.51,42.65,17.71,63,3.34,14.36,9.63,27.6,15.7,40.89q62.24,136.32,201,193.17c75,30.84,153.78,45.24,234.34,49.57a999,999,0,0,0,218.11-11.91c78.81-13.13,155.13-34.9,228.56-66.56,19.9-8.58,39.46-17.82,57.21-30.45,57.86-41.19,102-94.18,135.31-156.63,14.09-26.44,23.57-54.44,27-84.15,2.46-21.14,3.67-42.47,4.5-63.75,1.24-31.66-.26-63.28-3.13-94.84-3.08-33.82-5.89-67.67-9.24-101.47-2.88-28.88-4-57.84-4.16-86.81-.27-42.41,5.7-84.34,11.64-126.2,5.61-39.55,10.79-79.15,15-118.87.55-5.11.62-10.27.92-15.56-1.89.22-2.71.06-3.07.4-2.16,2.06-4.29,4.17-6.31,6.37a372.72,372.72,0,0,1-63.92,55.69c-14.56,10-30.21,18.18-45.45,27-1.88.64-3.82,1.14-5.62,2-33.3,15.06-67.87,25.24-104.42,28.77-63.88,6.17-123.72-5.76-177.17-41.78C1311.54,988,1272.91,913.57,1266.1,822.36c-4.72-63.39,8.59-123.56,41.42-178.24,57-94.9,141.22-144.94,252.08-149.38,11.3-.45,22.64.09,34,.17,2.94.57,5.85,1.37,8.82,1.66,41.34,4,80,16.72,116.53,36.12,1.87,1,3.68,3,6,1.78a2.47,2.47,0,0,0,0-3c-20.74-34.73-46.42-64.95-80.06-87.95-3.78-2.58-7.41-3.25-12.09-2.71s-10.45,2.2-14.57-2c0-3.89,2.74-3.92,4.86-4.61a17.58,17.58,0,0,0,8.33-5c13.5-15.24,28-29.41,45.52-40.13,3.69-2.25,7.06-5,10.66-7.42,18-12.08,27.65-29.64,31.34-50.31,4.06-22.67-1.42-43-18.6-59.3a83.41,83.41,0,0,0-32.55-18.88c-21.12-6.78-42.6-6.91-64-2.24-46,10-80.68,35.45-101.87,77.76-5.51,11-11.61,22.63-8.59,36,.32,1.4-.85,2.42-1.79,3.37-4.15-1.07-9.18-1.22-10.83-6-1.86-5.39-6.28-6.3-10.68-7.79-62.48-21.17-126.85-27.11-192.27-22.93-52.19,3.34-104.33,7.39-156.33,13.16-51,5.66-101.71,13.12-151.83,24.31-2.24.51-4.72.46-6,2.93,1.3,16.64-4,22.36-16.24,16.87,6.06-11.75,3.54-24.18,1.06-36-8.41-40.1-30.07-71.45-65-93.21C856.65,242.77,828,233.79,796,238.7c-29.8,4.57-51.84,23.25-57.36,50.95-4.67,23.45-1.5,45.82,14.48,65,3.63,4.35,7.1,8.87,11.09,12.86,13.36,13.34,23,29.37,32.34,45.47,2.74,4.71,4.84,9.37,10.2,11.54a3.41,3.41,0,0,1,2.37,3.93c-.54,2.46-2.68,3-4.71,2.41-5.82-1.61-10.36,1.29-15,3.93-22.6,12.93-44.23,27.28-64.21,44-3.23,2.71-6.74,5.2-9,8.79,1.54,1.46,2.86,1.14,4.09,1a300.36,300.36,0,0,1,77.71.13c77,9.94,142.41,42.59,194.53,100.39,36.74,40.74,58.79,88.62,64.66,143.34,5.62,52.37-4.34,102.2-27.4,149.34-29.65,60.6-74.35,107.68-131.42,143.1C852,1053.64,801.48,1070.66,747,1074.4c-46,3.15-90.26-4.43-132.45-23.4-3.36-1.51-6.48-4.49-10.75-3.43-.83,4.52-.17,8.49.31,12.42,4.53,37,8.08,74.18,10.92,111.38,5,65.11,8.43,130.32,10.8,195.59.66,18,1.7,35.93,2.56,53.89a16.33,16.33,0,0,1,1.27,7.21A8.36,8.36,0,0,0,629.53,1429.86ZM1281,803a243.82,243.82,0,0,0,6.65,57.48c19.63,82.59,65.73,145,142.86,182,61.66,29.57,126.31,31.77,190.88,11.42C1715.84,1024.09,1783.58,963,1824,872.5c20.76-46.43,27.3-95.34,18.89-145.54-10.43-62.3-42.09-112.49-92-150.66-71.24-54.52-152.17-72.11-239.64-56.45C1376.13,544.05,1280.14,661,1281,803ZM740,1058.24c18.91-.1,46.36-3.53,72.79-12.12,93.82-30.49,161.78-90.65,202.35-180.55,22.8-50.52,29.22-103.69,17.19-158.18C1017.47,640,978.66,589.08,921,552.73c-70.13-44.19-146.68-56.3-227.33-39.19-65.87,14-120.54,47.74-161.63,101.36C479.4,683.55,462.24,761.39,478.13,846c11.3,60.13,40.21,111.14,86.89,151.28C612.68,1038.23,668.41,1057.84,740,1058.24Zm752,830.82c2.31,5.13,5.69,8.41,8.51,12.08,8.14,10.59,15.63,21.55,19.91,34.39,3.15,9.45,6.46,18.86,9.55,28.34,1.86,5.71,5.57,8.65,11.58,9.33,18.51,2.09,31.13-8.58,31.72-27.18a73.65,73.65,0,0,0-.54-10c-2.46-24.58-15.57-44.74-27.11-66.24Zm-526.6,30.44L911,1904c-4.36,7.53-8.8,14.18-12.23,21.32-7.28,15.12-11.93,31-11.32,48,.56,16,9.79,25.19,25.7,25.92,11.56.53,14.83-2,18.43-13.44,7-22.25,14.88-44.11,30.87-61.91A47.32,47.32,0,0,0,965.43,1919.5Z" fill="#3e4c5b"/><path d="M628.34,1420.85c-.86-18-1.9-35.92-2.56-53.89-2.37-65.27-5.84-130.48-10.8-195.59-2.84-37.2-6.39-74.34-10.92-111.38-.48-3.93-1.14-7.9-.31-12.42,4.27-1.06,7.39,1.92,10.75,3.43,42.19,19,86.48,26.55,132.45,23.4,54.53-3.74,105-20.76,151.36-49.52,57.07-35.42,101.77-82.5,131.42-143.1,23.06-47.14,33-97,27.4-149.34-5.87-54.72-27.92-102.6-64.66-143.34-52.12-57.8-117.53-90.45-194.53-100.39a300.36,300.36,0,0,0-77.71-.13c-1.23.16-2.55.48-4.09-1,2.3-3.59,5.81-6.08,9-8.79,20-16.75,41.61-31.1,64.21-44,4.62-2.64,9.16-5.54,15-3.93,2,.56,4.17,0,4.71-2.41a3.41,3.41,0,0,0-2.37-3.93c-5.36-2.17-7.46-6.83-10.2-11.54-9.38-16.1-19-32.13-32.34-45.47-4-4-7.46-8.51-11.09-12.86-16-19.17-19.15-41.54-14.48-65,5.52-27.7,27.56-46.38,57.36-50.95,32-4.91,60.69,4.07,87.44,20.75,34.9,21.76,56.56,53.11,65,93.21,2.48,11.82,5,24.25-1.06,36,12.27,5.49,17.54-.23,16.24-16.87,1.27-2.47,3.75-2.42,6-2.93,50.12-11.19,100.82-18.65,151.83-24.31,52-5.77,104.14-9.82,156.33-13.16,65.42-4.18,129.79,1.76,192.27,22.93,4.4,1.49,8.82,2.4,10.68,7.79,1.65,4.78,6.68,4.93,10.83,6-.35,4.27,2.78,6.51,5.33,9.08,10.31,10.37,21.3,20.16,30.82,31.21,16.4,19,32.61,38.26,47.13,58.8,6.45,9.11,14.12,17.4,18.81,27.71-11.33-.08-22.67-.62-34-.17-110.86,4.44-195.11,54.48-252.08,149.38-32.83,54.68-46.14,114.85-41.42,178.24,6.81,91.21,45.44,165.66,122.27,217.45,53.45,36,113.29,48,177.17,41.78,36.55-3.53,71.12-13.71,104.42-28.77,1.8-.81,3.74-1.31,5.62-2-4.13,99.34-1,198.73-2,298.09-6.28-7.62-12.77-15-21-20.71-7.85-5.48-15.51-6.86-23.66-1-3.73-3.41-6.47-2.08-8.79,1.76a126.19,126.19,0,0,0-10.69,22.45c-7.28,20-16.25,39.26-28.38,56.88a182.7,182.7,0,0,0-11.89,20.73c-7.61,14.86-5.28,30.57,6.15,42.19,12.59,12.82,25.25,15,41.61,7.16,1.49-.71,3-1.33,4.54-2,.07,2.73,1.65,3.85,4.11,4.85,7.69,3.15,15.33,6.46,22.79,10.11,9.5,4.64,10.44,7.22,8.34,17.38-2.61,12.65-5.26,25.27-9,37.68-9.36,31.24-19.87,61.81-37.46,89.73-14.35,22.75-31,43.27-52.59,59.19-20.53,15.17-42.17,28.83-63.74,42.54-18,11.42-36.67,21.51-55.07,32.14-16.41,9.49-33.77,17.26-50.53,26.16-12.57,6.67-26.19,11.36-39.3,17-23.84,10.29-48.46,18.46-73.37,25.55a470.85,470.85,0,0,1-69.92,14.72c-19.72,2.48-39.43,4.77-59.28,5.4-21.92.7-43.69-1.4-65.51-3.63a607.69,607.69,0,0,1-79.1-13.89c-26.48-6.31-52.69-13.61-78.51-22.19-33.05-11-67.33-18-99.55-31.75-21.33-9.1-40.32-21.7-58.41-35.81-17.62-13.76-32.6-30.4-48.25-46.27-6.49-6.59-12-14.1-18-21.22-11.3-13.56-20.29-28.75-30.34-43.19-1.89-2.71-3.07-6.08-7.22-6-8.2-20.36-13.18-41.64-17.71-63a650.79,650.79,0,0,1-13.41-109.36M860.5,328.4c.54.55,1.08,1.09,1.63,1.63l5.28,5.82C871,341.4,874,347.36,879.91,351c-2.24-7.38-6.63-13.28-12.09-18.49a7.44,7.44,0,0,0-3.56-4.25l-1.83-2.18L860.6,324a59,59,0,0,0-30.37-21.65c-16.69-5.14-30.89,3.24-34.84,20.27-1.68,7.23-1.59,14.52-1,21.87A24.42,24.42,0,0,0,804.32,363c-4.5-15.34-5.05-23.55-2.38-33.77,4.4-16.85,17.59-23.61,33.78-17.14a57,57,0,0,1,9.63,5.2c4.48,2.88,8.75,6.06,13.11,9.1Zm430.87,768.14c3.35-7.46,4.84-15.21,3.24-23.34a51.77,51.77,0,0,0-17-29.77,119.47,119.47,0,0,0-34.92-21c-3.9-1.56-6.73-3.48-8.53-7.57-3.16-7.21-8.95-12.48-15.42-16.67-22.81-14.82-47.55-18.45-73.6-11-11.38,3.28-22.61,9-27.83,19.79-5.45,11.28-13.82,17.88-24.08,23.5-5.58,3-10,7.75-14.47,12.21-12.87,12.74-19.18,27.78-16.44,46.07-6.17,6.57-7.62,14.24-5.42,22.81,4,15.59,14.27,25.83,28.07,33.09,12.29,6.47,24.84,12.33,38.64,15.53,0,6.23.4,11.58-.07,16.84-1.2,13.18,14.86,28.81,28.15,28.09,13.95-.76,28,0,41.95-.2,18.07-.22,29.62-12.05,30-30.24.1-4.9-.88-9.93,1-14.8a151.68,151.68,0,0,0,39.57-16.27C1282.14,1133.06,1293,1118.39,1291.37,1096.54Z" fill="#9bd7fe"/><path d="M1281,803c-.86-142,95.13-258.93,230.33-283.13,87.47-15.66,168.4,1.93,239.64,56.45,49.87,38.17,81.53,88.36,92,150.66,8.41,50.2,1.87,99.11-18.89,145.54-40.46,90.49-108.2,151.59-202.65,181.37-64.57,20.35-129.22,18.15-190.88-11.42-77.13-37-123.23-99.4-142.86-182A243.82,243.82,0,0,1,1281,803Zm283-75.24c-13.07,23.57-5,67.54,25.22,90.83,31.86,24.58,77.16,22.56,106.22-5.13a81.29,81.29,0,0,0,9.88-106.57c-24.64-34.38-69.82-39.79-90.18-28.59,21.42,11.26,30.82,26.22,28,44.59-2.68,17.38-16.48,31.32-33.52,33.87C1590.17,759.65,1575.69,750.44,1564,727.74Z" fill="#fefefe"/><path d="M740,1058.24c-71.6-.4-127.33-20-175-61C518.34,957.1,489.43,906.09,478.13,846,462.24,761.39,479.4,683.55,532,614.9c41.09-53.62,95.76-87.39,161.63-101.36,80.65-17.11,157.2-5,227.33,39.19,57.68,36.35,96.49,87.31,111.36,154.66,12,54.49,5.61,107.66-17.19,158.18-40.57,89.9-108.53,150.06-202.35,180.55C786.37,1054.71,758.92,1058.14,740,1058.24ZM580.29,729.52c-13,27.3-4.94,71,28.64,94.47A81.35,81.35,0,0,0,722.53,711.1c-22.09-32.19-65.25-42-91-30.1,22.72,12.84,31.68,28.47,27.29,47.57a39.9,39.9,0,0,1-35.84,31.29C604.13,761.63,589.19,751.19,580.29,729.52Z" fill="#fefefe"/><path d="M1673.54,1349c1-99.36-2.09-198.75,2-298.09,15.24-8.84,30.89-17,45.45-27A372.72,372.72,0,0,0,1785,968.16c2-2.2,4.15-4.31,6.31-6.37.36-.34,1.18-.18,3.07-.4-.3,5.29-.37,10.45-.92,15.56-4.22,39.72-9.4,79.32-15,118.87-5.94,41.86-11.91,83.79-11.64,126.2.19,29,1.28,57.93,4.16,86.81,3.35,33.8,6.16,67.65,9.24,101.47,2.87,31.56,4.37,63.18,3.13,94.84-.83,21.28-2,42.61-4.5,63.75-3.45,29.71-12.93,57.71-27,84.15-33.28,62.45-77.45,115.44-135.31,156.63-17.75,12.63-37.31,21.87-57.21,30.45-73.43,31.66-149.75,53.43-228.56,66.56a999,999,0,0,1-218.11,11.91c-80.56-4.33-159.32-18.73-234.34-49.57q-138.42-56.93-201-193.17c-6.07-13.29-12.36-26.53-15.7-40.89,4.15-.1,5.33,3.27,7.22,6,10.05,14.44,19,29.63,30.34,43.19,5.94,7.12,11.5,14.63,18,21.22,15.65,15.87,30.63,32.51,48.25,46.27,18.09,14.11,37.08,26.71,58.41,35.81,32.22,13.75,66.5,20.77,99.55,31.75,25.82,8.58,52,15.88,78.51,22.19a607.69,607.69,0,0,0,79.1,13.89c21.82,2.23,43.59,4.33,65.51,3.63,19.85-.63,39.56-2.92,59.28-5.4a470.85,470.85,0,0,0,69.92-14.72c24.91-7.09,49.53-15.26,73.37-25.55,13.11-5.66,26.73-10.35,39.3-17,16.76-8.9,34.12-16.67,50.53-26.16,18.4-10.63,37.11-20.72,55.07-32.14,21.57-13.71,43.21-27.37,63.74-42.54,21.54-15.92,38.24-36.44,52.59-59.19,17.59-27.92,28.1-58.49,37.46-89.73,3.71-12.41,6.36-25,9-37.68,2.1-10.16,1.16-12.74-8.34-17.38-7.46-3.65-15.1-7-22.79-10.11-2.46-1-4-2.12-4.11-4.85,10.47-8.8,20.17-18.2,27.67-29.86a383.69,383.69,0,0,0,27.78-51.89c3.1-7,5.67-14.23,6.63-21.92.83-6.61-.67-12-7.74-14.28Z" fill="#8dc9f0"/><path d="M1673.54,1349c1-99.36-2.09-198.75,2-298.09,15.24-8.84,30.89-17,45.45-27A372.72,372.72,0,0,0,1785,968.16c2-2.2,4.15-4.31,6.31-6.37.36-.34,1.18-.18,3.07-.4-.3,5.29-.37,10.45-.92,15.56-4.22,39.72-9.4,79.32-15,118.87-5.94,41.86-11.91,83.79-11.64,126.2.19,29,1.28,57.93,4.16,86.81,3.35,33.8,6.16,67.65,9.24,101.47,2.87,31.56,4.37,63.18,3.13,94.84-.83,21.28-2,42.61-4.5,63.75-3.45,29.71-12.93,57.71-27,84.15-33.28,62.45-77.45,115.44-135.31,156.63-17.75,12.63-37.31,21.87-57.21,30.45-73.43,31.66-149.75,53.43-228.56,66.56a999,999,0,0,1-218.11,11.91c-80.56-4.33-159.32-18.73-234.34-49.57q-138.42-56.93-201-193.17c-6.07-13.29-12.36-26.53-15.7-40.89,4.15-.1,5.33,3.27,7.22,6,10.05,14.44,19,29.63,30.34,43.19,5.94,7.12,11.5,14.63,18,21.22,15.65,15.87,30.63,32.51,48.25,46.27,18.09,14.11,37.08,26.71,58.41,35.81,32.22,13.75,66.5,20.77,99.55,31.75,25.82,8.58,52,15.88,78.51,22.19a607.69,607.69,0,0,0,79.1,13.89c21.82,2.23,43.59,4.33,65.51,3.63,19.85-.63,39.56-2.92,59.28-5.4a470.85,470.85,0,0,0,69.92-14.72c24.91-7.09,49.53-15.26,73.37-25.55,13.11-5.66,26.73-10.35,39.3-17,16.76-8.9,34.12-16.67,50.53-26.16,18.4-10.63,37.11-20.72,55.07-32.14,21.57-13.71,43.21-27.37,63.74-42.54,21.54-15.92,38.24-36.44,52.59-59.19,17.59-27.92,28.1-58.49,37.46-89.73,3.71-12.41,6.36-25,9-37.68,2.1-10.16,1.16-12.74-8.34-17.38-7.46-3.65-15.1-7-22.79-10.11-2.46-1-4-2.12-4.11-4.85,10.47-8.8,20.17-18.2,27.67-29.86a383.69,383.69,0,0,0,27.78-51.89c3.1-7,5.67-14.23,6.63-21.92.83-6.61-.67-12-7.74-14.28Z" fill="#9bd7fe"/><path d="M1593.57,494.91c-4.69-10.31-12.36-18.6-18.81-27.71-14.52-20.54-30.73-39.77-47.13-58.8-9.52-11-20.51-20.84-30.82-31.21-2.55-2.57-5.68-4.81-5.33-9.08.94-.95,2.11-2,1.79-3.37-3-13.41,3.08-25,8.59-36,21.19-42.31,55.88-67.74,101.87-77.76,21.43-4.67,42.91-4.54,64,2.24a83.41,83.41,0,0,1,32.55,18.88c17.18,16.34,22.66,36.63,18.6,59.3-3.69,20.67-13.35,38.23-31.34,50.31-3.6,2.41-7,5.17-10.66,7.42-17.53,10.72-32,24.89-45.52,40.13a17.58,17.58,0,0,1-8.33,5c-2.12.69-4.84.72-4.86,4.61,4.12,4.18,9.77,2.53,14.57,2s8.31.13,12.09,2.71c33.64,23,59.32,53.22,80.06,87.95a2.47,2.47,0,0,1,0,3c-2.34,1.23-4.15-.79-6-1.78-36.57-19.4-75.19-32.11-116.53-36.12C1599.42,496.28,1596.51,495.48,1593.57,494.91Zm44-119.92a3.13,3.13,0,0,0-.88.36c-.13.1-.15.61-.13.61.66.19,1-.18.94-1,.56-.22,2,.33,1-1.2Zm-57-39.12a48.8,48.8,0,0,0,13.35-8.62c9.18-3.83,18.14-8.24,28.24-9.4,13.12-1.5,22.79,5.13,25.78,17.92,2.7,11.58-.18,22.36-4.68,32.91-1.14.64-2.07,1.6-1.7,2.92s1.24.92,2,.11c2.52-1.67,5-3.61,6.23-6.32,4.51-9.74,7.5-20,6.64-30.78-1.28-16.08-13.18-24.35-26.45-24.11-14.69.26-27,5.8-38.33,14.5a34.5,34.5,0,0,0-12.44,9.53c-4.42,2.32-8,5.46-10,10C1574.33,343.25,1577.51,339.64,1580.57,335.87Z" fill="#8dc8ef"/><path d="M1593.57,494.91c-4.69-10.31-12.36-18.6-18.81-27.71-14.52-20.54-30.73-39.77-47.13-58.8-9.52-11-20.51-20.84-30.82-31.21-2.55-2.57-5.68-4.81-5.33-9.08.94-.95,2.11-2,1.79-3.37-3-13.41,3.08-25,8.59-36,21.19-42.31,55.88-67.74,101.87-77.76,21.43-4.67,42.91-4.54,64,2.24a83.41,83.41,0,0,1,32.55,18.88c17.18,16.34,22.66,36.63,18.6,59.3-3.69,20.67-13.35,38.23-31.34,50.31-3.6,2.41-7,5.17-10.66,7.42-17.53,10.72-32,24.89-45.52,40.13a17.58,17.58,0,0,1-8.33,5c-2.12.69-4.84.72-4.86,4.61,4.12,4.18,9.77,2.53,14.57,2s8.31.13,12.09,2.71c33.64,23,59.32,53.22,80.06,87.95a2.47,2.47,0,0,1,0,3c-2.34,1.23-4.15-.79-6-1.78-36.57-19.4-75.19-32.11-116.53-36.12C1599.42,496.28,1596.51,495.48,1593.57,494.91Zm44-119.92a3.13,3.13,0,0,0-.88.36c-.13.1-.15.61-.13.61.66.19,1-.18.94-1,.56-.22,2,.33,1-1.2Zm-57-39.12a48.8,48.8,0,0,0,13.35-8.62c9.18-3.83,18.14-8.24,28.24-9.4,13.12-1.5,22.79,5.13,25.78,17.92,2.7,11.58-.18,22.36-4.68,32.91-1.14.64-2.07,1.6-1.7,2.92s1.24.92,2,.11c2.52-1.67,5-3.61,6.23-6.32,4.51-9.74,7.5-20,6.64-30.78-1.28-16.08-13.18-24.35-26.45-24.11-14.69.26-27,5.8-38.33,14.5a34.5,34.5,0,0,0-12.44,9.53c-4.42,2.32-8,5.46-10,10C1574.33,343.25,1577.51,339.64,1580.57,335.87Z" fill="#9bd7fe"/><path d="M1492,1889.06l53.62-19.23c11.54,21.5,24.65,41.66,27.11,66.24a73.65,73.65,0,0,1,.54,10c-.59,18.6-13.21,29.27-31.72,27.18-6-.68-9.72-3.62-11.58-9.33-3.09-9.48-6.4-18.89-9.55-28.34-4.28-12.84-11.77-23.8-19.91-34.39C1497.72,1897.47,1494.34,1894.19,1492,1889.06Z" fill="#ded3b7"/><path d="M965.43,1919.5a47.32,47.32,0,0,1-2.94,4.36c-16,17.8-23.86,39.66-30.87,61.91-3.6,11.42-6.87,14-18.43,13.44-15.91-.73-25.14-10-25.7-25.92-.61-17,4-32.9,11.32-48,3.43-7.14,7.87-13.79,12.23-21.32Z" fill="#ded3b7"/><path d="M630.46,1462.59a179,179,0,0,1-.93-32.73" fill="#8bc6ec"/><path d="M630.46,1462.59a179,179,0,0,1-.93-32.73" fill="#9bd7fe"/><path d="M1062.28,1088.76c-2.74-18.29,3.57-33.33,16.44-46.07,4.51-4.46,8.89-9.16,14.47-12.21,10.26-5.62,18.63-12.22,24.08-23.5,5.22-10.79,16.45-16.51,27.83-19.79,26.05-7.49,50.79-3.86,73.6,11,6.47,4.19,12.26,9.46,15.42,16.67,1.8,4.09,4.63,6,8.53,7.57a119.47,119.47,0,0,1,34.92,21,51.77,51.77,0,0,1,17,29.77c1.6,8.13.11,15.88-3.24,23.34-19.61,27.08-48.43,37.73-79.41,44.53-3.45-.52-6.43,1-9.46,2.21-2.29.15-4.59.19-6.86.48a151.24,151.24,0,0,1-55.68-2.67c-3.61-.21-6.75-2.76-10.53-2.09a164.43,164.43,0,0,1-27.84-10.43C1083.79,1120,1069.06,1108.27,1062.28,1088.76Zm49.09-52.63c-5.36,1.93-9.1,5.2-12.85,8.41-25.22,21.66-25.15,50.27,5.31,68.88,43.17,26.38,102.61,21,139.9-6a53.66,53.66,0,0,0,12.73-12.61c8.26-11.81,8.3-24.52-.17-36.19a65.38,65.38,0,0,0-23.75-19.83c-6.42,6-13.31,11.11-21.43,14.5a121.57,121.57,0,0,1-54.67,9.25c-10.69-.63-21-3.28-30.24-9.23C1119.58,1049.11,1115.3,1042.9,1111.37,1036.13Z" fill="#3c4958"/><path d="M1673.54,1349l2.25,9.52c-1.67,8.67-1.24,17.68-4.87,26-8.89,20.46-18.83,40.35-31.37,58.83-5.24,7.71-11.19,14.88-18.93,20.33q-17.74,12.48-34.64-1.57c-11.09-9.2-13.43-20.52-6.88-33.88,3.23-6.59,7.69-12.42,11.87-18.41,7.23-10.37,14.27-20.85,18.48-32.92,5.77-16.51,9.63-33.78,19.45-48.68.15-.23,0-.65,0-1,8.15-5.85,15.81-4.47,23.66,1C1660.77,1334,1667.26,1341.34,1673.54,1349Z" fill="#dfd4b8"/><path d="M1062.28,1088.76c6.78,19.51,21.51,31.25,39.31,39.81a164.43,164.43,0,0,0,27.84,10.43c-.59,11.94-1.47,23.86-1.69,35.8-.23,12.09,6.66,19.8,18.39,20.37,14.59.71,29.18,1.3,43.8,1.3,16.35,0,24.12-10.67,22.49-24.64-1.18-10.14-2-20.49-.46-30.76,31-6.8,59.8-17.45,79.41-44.53,1.6,21.85-9.23,36.52-27.18,47.07a151.68,151.68,0,0,1-39.57,16.27c-1.9,4.87-.92,9.9-1,14.8-.38,18.19-11.93,30-30,30.24-14,.16-28-.56-41.95.2-13.29.72-29.35-14.91-28.15-28.09.47-5.26.07-10.61.07-16.84-13.8-3.2-26.35-9.06-38.64-15.53-13.8-7.26-24.07-17.5-28.07-33.09C1054.66,1103,1056.11,1095.33,1062.28,1088.76Z" fill="#8bc6ec"/><path d="M1062.28,1088.76c6.78,19.51,21.51,31.25,39.31,39.81a164.43,164.43,0,0,0,27.84,10.43c-.59,11.94-1.47,23.86-1.69,35.8-.23,12.09,6.66,19.8,18.39,20.37,14.59.71,29.18,1.3,43.8,1.3,16.35,0,24.12-10.67,22.49-24.64-1.18-10.14-2-20.49-.46-30.76,31-6.8,59.8-17.45,79.41-44.53,1.6,21.85-9.23,36.52-27.18,47.07a151.68,151.68,0,0,1-39.57,16.27c-1.9,4.87-.92,9.9-1,14.8-.38,18.19-11.93,30-30,30.24-14,.16-28-.56-41.95.2-13.29.72-29.35-14.91-28.15-28.09.47-5.26.07-10.61.07-16.84-13.8-3.2-26.35-9.06-38.64-15.53-13.8-7.26-24.07-17.5-28.07-33.09C1054.66,1103,1056.11,1095.33,1062.28,1088.76Z" fill="#9bd7fe"/><path d="M1628.9,1327.24c0,.34.15.76,0,1-9.82,14.9-13.68,32.17-19.45,48.68-4.21,12.07-11.25,22.55-18.48,32.92-4.18,6-8.64,11.82-11.87,18.41-6.55,13.36-4.21,24.68,6.88,33.88q16.93,14.06,34.64,1.57c7.74-5.45,13.69-12.62,18.93-20.33,12.54-18.48,22.48-38.37,31.37-58.83,3.63-8.37,3.2-17.38,4.87-26,7.07,2.32,8.57,7.66,7.74,14.27-1,7.69-3.53,14.94-6.63,21.92a383.69,383.69,0,0,1-27.78,51.89c-7.5,11.66-17.2,21.06-27.67,29.86-1.51.66-3,1.28-4.54,2-16.36,7.83-29,5.66-41.61-7.16-11.43-11.62-13.76-27.33-6.15-42.19a182.7,182.7,0,0,1,11.89-20.73c12.13-17.62,21.1-36.83,28.38-56.88a126.19,126.19,0,0,1,10.69-22.45C1622.43,1325.16,1625.17,1323.83,1628.9,1327.24Z" fill="#414f5e"/><path d="M858.46,326.44c-4.36-3.06-8.63-6.24-13.11-9.12a57,57,0,0,0-9.63-5.2c-16.19-6.47-29.38.29-33.78,17.14-2.67,10.22-2.12,18.43,2.38,33.77a24.42,24.42,0,0,1-9.94-18.56c-.58-7.35-.67-14.64,1-21.87,4-17,18.15-25.41,34.84-20.27A59,59,0,0,1,860.6,324Z" fill="#435566"/><path d="M867.82,332.54c5.46,5.21,9.85,11.11,12.09,18.49-5.88-3.67-8.94-9.63-12.5-15.18C867.54,334.74,867.68,333.64,867.82,332.54Z" fill="#516b80"/><path d="M867.82,332.54c-.14,1.1-.28,2.2-.41,3.31L862.13,330l2.13-1.74A7.44,7.44,0,0,1,867.82,332.54Z" fill="#435566"/><path d="M860.49,328.42c-.67-.67-1.35-1.33-2-2L860.6,324l1.83,2.12Z" fill="#435566"/><path d="M862.13,330l-1.64-1.62c.65-.76,1.29-1.53,1.94-2.3l1.83,2.18Z" fill="#435566"/><path d="M1564,727.74c11.66,22.7,26.14,31.91,45.6,29,17-2.55,30.84-16.49,33.52-33.87,2.84-18.37-6.56-33.33-28-44.59,20.36-11.2,65.54-5.79,90.18,28.59a81.29,81.29,0,0,1-9.88,106.57c-29.06,27.69-74.36,29.71-106.22,5.13C1559.08,795.28,1551,751.31,1564,727.74Z" fill="#3b4657"/><path d="M580.29,729.52c8.9,21.67,23.84,32.11,42.65,30.34a39.9,39.9,0,0,0,35.84-31.29c4.39-19.1-4.57-34.73-27.29-47.57,25.79-11.89,69-2.09,91,30.1A81.35,81.35,0,0,1,608.93,824C575.35,800.55,567.26,756.82,580.29,729.52Z" fill="#3b4657"/><path d="M1591.6,325c11.31-8.7,23.64-14.24,38.33-14.5,13.27-.24,25.17,8,26.45,24.11.86,10.74-2.13,21-6.64,30.78-1.26,2.71-3.71,4.65-6.22,6.32-.09-1-.17-2-.26-3,4.5-10.55,7.38-21.33,4.68-32.91-3-12.79-12.66-19.42-25.78-17.92-10.1,1.16-19.06,5.57-28.24,9.4Z" fill="#405061"/><path d="M1591.6,325l2.32,2.25a48.8,48.8,0,0,1-13.35,8.62l-1.41-1.34A34.5,34.5,0,0,1,1591.6,325Z" fill="#526b80"/><path d="M1580.57,335.87c-3.06,3.77-6.24,7.38-11.42,8.7,2-4.58,5.59-7.72,10-10Z" fill="#526b80"/><path d="M1643.26,368.68c.09,1,.17,2,.26,3-.72.81-1.63,1.09-2-.11S1642.12,369.32,1643.26,368.68Z" fill="#5e7e97"/><path d="M1637.53,374.92c0,.86-.28,1.23-.94,1,0,0,0-.51.13-.61a3.13,3.13,0,0,1,.88-.36Z" fill="#5e7e97"/><path d="M1637.6,375l1-1.27c1,1.53-.46,1-1,1.2Z" fill="#5e7e97"/><path d="M1111.37,1036.13c3.93,6.77,8.21,13,14.83,17.23,9.26,6,19.55,8.6,30.24,9.23a121.57,121.57,0,0,0,54.67-9.25c8.12-3.39,15-8.46,21.43-14.5a65.38,65.38,0,0,1,23.75,19.83c8.47,11.67,8.43,24.38.17,36.19a53.66,53.66,0,0,1-12.73,12.61c-37.29,27-96.73,32.33-139.9,6-30.46-18.61-30.53-47.22-5.31-68.88C1102.27,1041.33,1106,1038.06,1111.37,1036.13Z" fill="#dfceca"/><path d="M1140,1141.09a151.24,151.24,0,0,0,55.68,2.67c2.27-.29,4.57-.33,6.86-.48.61,9,1.44,17.91,1.78,26.89.38,9.7-4.4,15.95-13.53,16.36a346.9,346.9,0,0,1-36.91-.18c-9.56-.59-15.37-6.88-15.38-16.46S1138,1150.6,1140,1141.09Z" fill="#fbfbfb"/><path d="M1140,1141.09c-2,9.51-1.52,19.21-1.5,28.8s5.82,15.87,15.38,16.46a346.9,346.9,0,0,0,36.91.18c9.13-.41,13.91-6.66,13.53-16.36-.34-9-1.17-17.93-1.78-26.89,3-1.25,6-2.73,9.46-2.21-1.51,10.27-.72,20.62.46,30.76,1.63,14-6.14,24.65-22.49,24.64-14.62,0-29.21-.59-43.8-1.3-11.73-.57-18.62-8.28-18.39-20.37.22-11.94,1.1-23.86,1.69-35.8C1133.21,1138.33,1136.35,1140.88,1140,1141.09Z" fill="#363d41"/><path d="M483.74,438c7.71,45.29,287.34,68.31,380.41,76C1331.2,552.37,1894.74,513,1911.2,441.7c4.66-20.16-32.73-49.88-214-92.27-464.57-65.7-777.67-30.3-938.19-2.29C702.44,357,476.66,396.38,483.74,438Z" fill="#fdbf6c" stroke="#e0a661" stroke-miterlimit="10" stroke-width="10"/><rect x="834.57" y="59.96" width="762" height="319" fill="#fdbf6c" stroke="#e0a661" stroke-miterlimit="10" stroke-width="10"/><path d="M829.66,56.35C833.82,75.09,985,84.61,1035.32,87.78c255.18,16.07,561.12-1.08,566.06-29.89,3.61-21-154.53-40.95-200.81-46.78-192.91-24.31-350.52-2.66-422.12,7.66C930.21,25.72,826.16,40.61,829.66,56.35Z" fill="#e0a661"/><path d="M1601.57,378a3073.67,3073.67,0,0,1-772,0V268q374.37,46.28,772,0Z" fill="#e83843" stroke="#823843" stroke-miterlimit="10" stroke-width="10"/><path d="M1668.57,279.12c54.62-17.67,127.59-31.61,183.24,0,45.36,25.77,62.37,66.46,74.44,104.3C1967.57,513,2074.07,552.69,2064.57,553c-35,1-57.21,9.79-89,56-122.63-100.78-116.46-135.69-133-190-4.41-14.49-16.42-60.53-38-74s-95.18-9.2-136,2C1667.94,329.87,1669.21,296.22,1668.57,279.12Z" fill="#e83843" stroke="#823843" stroke-miterlimit="10" stroke-width="10"/><path d="M782.36,414.38c-4.81-7.63-12.36-19.07-22.52-32.33-15.15-19.76-17.77-19.71-22.93-27.65-18.74-28.86-20.55-81.42,15.46-108.54,16-12,34.18-17.88,53.92-18.63,37.72-1.42,70.45,12,99.56,35.06C932,283,949.67,309.43,958,341.91c.73,2.87,1.67,5.68,2.51,8.47,1.06,10.58,12.24,40.85-4.94,51.58-8,5-52.84,10.48-66,14s-48.69,21.25-59,27C811.32,453.69,791.73,436.42,782.36,414.38Z" fill="#3e4c5b"/><path d="M796.51,413c-16.49-20.09-16.27-29.42-32.34-45.47-4-4-7.46-8.51-11.09-12.86-16-19.17-19.15-41.54-14.48-65,5.52-27.7,27.56-46.38,57.36-50.95,32-4.91,60.69,4.07,87.44,20.75A143.34,143.34,0,0,1,925,298.06c17.47,24.58,22.14,47.6,23.34,54.6,3,17.39,4.72,27.55-1.06,36-9.9,14.48-28.17,3.9-63.74,14.3-36.23,10.6-50.24,31.24-73,24-6.9-2.2-10.89-11.09-14-14" fill="#9bd7fe"/><path d="M867.82,332.54a7.44,7.44,0,0,0-3.56-4.25l-1.83-2.18L860.6,324a59,59,0,0,0-30.37-21.65c-16.69-5.14-30.89,3.24-34.84,20.27-1.68,7.23-1.59,14.52-1,21.87A24.42,24.42,0,0,0,804.32,363c-4.5-15.34-5.05-23.55-2.38-33.77,4.4-16.85,17.59-23.61,33.78-17.14a57,57,0,0,1,9.63,5.2c4.48,2.88,8.75,6.06,13.11,9.1l2,2c.54.55,1.08,1.09,1.63,1.63l5.28,5.82" fill="#9bd7fe"/><path d="M858.46,326.44c-4.36-3.06-8.63-6.24-13.11-9.12a57,57,0,0,0-9.63-5.2c-16.19-6.47-29.38.29-33.78,17.14-2.67,10.22-2.12,18.43,2.38,33.77a24.42,24.42,0,0,1-9.94-18.56c-.58-7.35-.67-14.64,1-21.87,4-17,18.15-25.41,34.84-20.27A59,59,0,0,1,860.6,324Z" fill="#435566"/><path d="M872.57,338c2,4-.86,4.9-1,6-1.76-1.94-7.68-12-9.44-13.93l2.13-1.74C866,329.25,869.57,334,872.57,338Z" fill="#435566"/><path d="M860.49,328.42c-.67-.67-1.35-1.33-2-2L860.6,324l1.83,2.12Z" fill="#435566"/><path d="M862.13,330l-1.64-1.62c.65-.76,1.29-1.53,1.94-2.3l1.83,2.18Z" fill="#435566"/><path d="M1631.72,449c-10-5.75-44.37-23.48-57.1-27s-56.12-9-63.87-14c-16.61-10.73-5.8-41-4.77-51.58.81-2.79,1.72-5.6,2.43-8.47,8-32.48,25.17-58.88,50.47-79.62,28.17-23.09,59.84-36.48,96.34-35.06,19.1.75,36.71,6.6,52.18,18.63,34.84,27.12,33.1,79.68,15,108.54-5,7.94-7.53,7.89-22.19,27.65-9.84,13.26-17.14,24.7-21.79,32.33C1669.31,442.42,1650.35,459.69,1631.72,449Z" fill="#3e4c5b"/><path d="M1664.62,419c-3,2.91-6.87,11.8-13.55,14-22,7.24-35.57-13.4-70.64-24-34.41-10.4-52.1.18-61.68-14.3-5.59-8.45-3.91-18.61-1-36a138.53,138.53,0,0,1,22.58-54.6,140.72,140.72,0,0,1,40.29-38.61c25.89-16.68,53.64-25.66,84.61-20.75,28.84,4.57,50.18,23.25,55.52,50.95,4.52,23.45,1.44,45.82-14,65-3.51,4.35-6.87,8.87-10.73,12.86-15.55,16.05-15.34,25.38-31.3,45.47" fill="#9bd7fe"/><path d="M1596.08,341.85l5.11-5.82c.52-.54,1-1.08,1.57-1.63s1.32-1.31,2-2c4.22-3,8.36-6.22,12.69-9.1a54.66,54.66,0,0,1,9.32-5.2c15.67-6.47,28.43.29,32.69,17.14,2.58,10.22,2,18.43-2.3,33.77,6.19-4.91,9-11,9.62-18.56.56-7.35.64-14.64-1-21.87-3.83-17-17.57-25.41-33.72-20.27A57.22,57.22,0,0,0,1602.66,330l-1.77,2.13-1.77,2.18a7.45,7.45,0,0,0-3.45,4.25" fill="#9bd7fe"/><path d="M1604.73,332.44c4.22-3.06,8.36-6.24,12.69-9.12a54.66,54.66,0,0,1,9.32-5.2c15.67-6.47,28.43.29,32.69,17.14,2.58,10.22,2,18.43-2.3,33.77,6.19-4.91,9-11,9.62-18.56.56-7.35.64-14.64-1-21.87-3.83-17-17.57-25.41-33.72-20.27A57.11,57.11,0,0,0,1602.67,330C1603.36,330.81,1604.05,331.62,1604.73,332.44Z" fill="#435566"/><path d="M1591.07,344c-1.93,4,.84,4.9,1,6,1.71-1.94,7.44-12,9.15-13.93l-2.07-1.74C1597.44,335.25,1594,340,1591.07,344Z" fill="#435566"/><path d="M1602.77,334.42c.65-.67,1.31-1.33,2-2l-2.06-2.44c-.6.7-1.19,1.41-1.78,2.12Z" fill="#435566"/><path d="M1601.19,336l1.58-1.62c-.63-.76-1.25-1.53-1.88-2.3l-1.77,2.18Z" fill="#435566"/><path d="M1047,1339c47.64,4.45,129,26.65,148.58,46.25s19.38,64.77,20,79.22c2.33,54.13-14.46,83,89.92,215.91,47.91-29.86,74.63-29.84,113-18.37,10.42,3.12-94-69.82-101.61-199.59-2.22-37.91-9-80.1-50.92-119-51.44-47.77-134.87-61.13-199.41-64.71C1062.3,1294.09,1051.21,1323.56,1047,1339Z" fill="#e83843" stroke="#823843" stroke-miterlimit="10" stroke-width="10"/><path d="M1329.74,1343.28c-45.61,5.32-123.94,27.12-143.24,44.78s-20.47,57-21.5,69.61c-3.86,47.22,11.29,71.84-92.39,190.77-44.83-24.55-70.34-23.72-107.32-12.56-10,3,91.87-63.67,103.06-176.92,3.27-33.09,11-70,52.22-105.22,50.55-43.16,130.6-57.34,192.32-62.4C1316.47,1304.64,1326.16,1330,1329.74,1343.28Z" fill="#e83843" stroke="#823843" stroke-miterlimit="10" stroke-width="10"/><path d="M1786.32,1258.15c-400.42,163-804.17,158.11-1188.24-1.26a30.07,30.07,0,0,1-18.51-27.77V1125.87a7.05,7.05,0,0,1,10.35-6.23c90,47.41,748,257.43,1203.77.12a9.55,9.55,0,0,1,14.2,9.4c-3.72,31.92-5.16,70.85-6.13,106.7A24.81,24.81,0,0,1,1786.32,1258.15Z" fill="#e83843" stroke="#823843" stroke-miterlimit="10" stroke-width="10"/><path d="M1146.56,1262.07c31.09-20.68,82-25.73,113.4,2.44,18.11,16.25,30.61,44.31,21.64,69.88-13.11,37.35-64.49,47.76-96.95,44.69-4.8-.46-64.74-6.92-75.31-46.32C1101.24,1302.53,1128,1274.43,1146.56,1262.07Z" fill="#e83843" stroke="#823843" stroke-miterlimit="10" stroke-width="10"/><path d="M402.08,513.85,307.53,114.77a68.24,68.24,0,0,0-82.12-50.66L57.51,103.89A68.24,68.24,0,0,0,6.85,186L100.5,581.26a198.79,198.79,0,0,0,36.44,76.14L265.12,822.48a5.36,5.36,0,0,0,5.47,1.93l85.47-20.25a5.36,5.36,0,0,0,4-4.08L403,601.75A199.07,199.07,0,0,0,402.08,513.85Z" fill="#af6924" stroke="#7c481e" stroke-miterlimit="10" stroke-width="10"/><rect x="362.69" y="543.52" width="106.62" height="1396.57" rx="53.31" ry="53.31" transform="translate(-275.08 129.35) rotate(-13.33)" fill="#af6924" stroke="#7c481e" stroke-miterlimit="10" stroke-width="10"/><rect x="539.9" y="1791.9" width="68.31" height="235.36" rx="13.74" ry="13.74" transform="translate(2299.85 910.75) rotate(76.67)" fill="#af6924" stroke="#7c481e" stroke-miterlimit="10" stroke-width="10"/><rect x="503.75" y="1789.3" width="106.62" height="96.8" transform="translate(2216.83 871.99) rotate(76.67)" fill="#af6924"/><rect x="265.59" y="784.28" width="106.62" height="96.8" transform="translate(1055.63 330.41) rotate(76.67)" fill="#af6924"/></svg>